<?xml version="1.0" encoding="UTF-8" standalone="no"?>
<!DOCTYPE svg PUBLIC "-//W3C//DTD SVG 1.1//EN"
 "http://www.w3.org/Graphics/SVG/1.1/DTD/svg11.dtd">
<!-- Generated by graphviz version 2.38.0 (20140413.2041)
 -->
<!-- Title: g Pages: 1 -->
<svg width="1012pt" height="509pt"
 viewBox="14.40 14.40 997.12 494.93" xmlns="http://www.w3.org/2000/svg" xmlns:xlink="http://www.w3.org/1999/xlink">
<g id="graph0" class="graph" transform="scale(1 1) rotate(0) translate(18.4 490.934)">
<title>g</title>
<polygon fill="#ffffff" stroke="none" points="-4,4 -4,-476.534 978.719,-476.534 978.719,4 -4,4"/>
<text text-anchor="middle" x="487.359" y="-454.134" font-family="Hiragino Kaku Gothic" font-size="18.00">OpenSCADフローチャート</text>
<g id="clust1" class="cluster"><title>cluster1</title>
<polygon fill="#eff3ff" stroke="black" points="0,-133 0,-396 111,-396 111,-133 0,-133"/>
<text text-anchor="middle" x="55.5" y="-377.6" font-family="Hiragino Kaku Gothic" font-size="18.00">2D図形生成</text>
</g>
<g id="clust2" class="cluster"><title>cluster2</title>
<polygon fill="#eff3ff" stroke="black" points="532.73,-8 532.73,-271 714.887,-271 714.887,-8 532.73,-8"/>
<text text-anchor="middle" x="623.809" y="-252.6" font-family="Hiragino Kaku Gothic" font-size="18.00">3D基本オブジェクト</text>
</g>
<g id="clust3" class="cluster"><title>cluster3</title>
<polygon fill="#eff3ff" stroke="black" points="563.719,-271 563.719,-411 682.898,-411 682.898,-271 563.719,-271"/>
<text text-anchor="middle" x="623.309" y="-392.6" font-family="Hiragino Kaku Gothic" font-size="18.00">押出し</text>
</g>
<g id="clust4" class="cluster"><title>cluster4</title>
<polygon fill="#eff3ff" stroke="black" points="147,-194 147,-396 236.789,-396 236.789,-194 147,-194"/>
<text text-anchor="middle" x="191.895" y="-377.6" font-family="Hiragino Kaku Gothic" font-size="18.00">2D変形</text>
</g>
<g id="clust5" class="cluster"><title>cluster5</title>
<polygon fill="#eff3ff" stroke="black" points="749.898,-169 749.898,-371 974.719,-371 974.719,-169 749.898,-169"/>
<text text-anchor="middle" x="862.309" y="-352.6" font-family="Hiragino Kaku Gothic" font-size="18.00">論理演算（3D組み合わせ)</text>
</g>
<g id="clust6" class="cluster"><title>cluster6</title>
<polygon fill="#eff3ff" stroke="black" points="272.789,-142 272.789,-344 497.719,-344 497.719,-142 272.789,-142"/>
<text text-anchor="middle" x="385.254" y="-325.6" font-family="Hiragino Kaku Gothic" font-size="18.00">論理演算（2D組み合わせ)</text>
</g>
<!-- square -->
<g id="node1" class="node"><title>square</title>
<polygon fill="#bdd7e7" stroke="black" points="98,-359.5 12,-359.5 12,-316.5 98,-316.5 98,-359.5"/>
<text text-anchor="middle" x="55" y="-333.2" font-family="Hiragino Kaku Gothic" font-size="16.00">square</text>
</g>
<!-- circle -->
<g id="node2" class="node"><title>circle</title>
<polygon fill="#bdd7e7" stroke="black" points="98,-298.5 12,-298.5 12,-255.5 98,-255.5 98,-298.5"/>
<text text-anchor="middle" x="55" y="-272.2" font-family="Hiragino Kaku Gothic" font-size="16.00">circle</text>
</g>
<!-- linear_extrude -->
<g id="node9" class="node"><title>linear_extrude</title>
<polygon fill="#bdd7e7" stroke="black" points="682.208,-375.5 564.409,-375.5 564.409,-332.5 682.208,-332.5 682.208,-375.5"/>
<text text-anchor="middle" x="623.309" y="-349.2" font-family="Hiragino Kaku Gothic" font-size="16.00">linear_extrude</text>
</g>
<!-- circle&#45;&gt;linear_extrude -->
<g id="edge1" class="edge"><title>circle&#45;&gt;linear_extrude</title>
<path fill="none" stroke="black" d="M111,-308C138.123,-338.234 113.091,-369.64 147,-392 271.471,-474.076 456.064,-421.856 554.574,-383.68"/>
<polygon fill="black" stroke="black" points="556.101,-386.84 564.123,-379.918 553.536,-380.327 556.101,-386.84"/>
</g>
<!-- hull -->
<g id="node12" class="node"><title>hull</title>
<polygon fill="#bdd7e7" stroke="black" points="234.895,-298.5 148.895,-298.5 148.895,-255.5 234.895,-255.5 234.895,-298.5"/>
<text text-anchor="middle" x="191.895" y="-272.2" font-family="Hiragino Kaku Gothic" font-size="16.00">hull</text>
</g>
<!-- circle&#45;&gt;hull -->
<g id="edge3" class="edge"><title>circle&#45;&gt;hull</title>
<path fill="none" stroke="black" d="M110.662,-277C119.922,-277 129.515,-277 138.709,-277"/>
<polygon fill="black" stroke="black" points="137,-280.5 147,-277 137,-273.5 137,-280.5"/>
</g>
<!-- difference(2D) -->
<g id="node18" class="node"><title>difference(2D)</title>
<polygon fill="#bdd7e7" stroke="black" points="443.848,-246.5 326.66,-246.5 326.66,-203.5 443.848,-203.5 443.848,-246.5"/>
<text text-anchor="middle" x="385.254" y="-220.2" font-family="Hiragino Kaku Gothic" font-size="16.00">difference(2D)</text>
</g>
<!-- circle&#45;&gt;difference(2D) -->
<g id="edge2" class="edge"><title>circle&#45;&gt;difference(2D)</title>
<path fill="none" stroke="black" d="M111,-246C132.521,-225.694 121.03,-204.178 147,-190 167.498,-178.809 215.592,-184.147 263.159,-193.677"/>
<polygon fill="black" stroke="black" points="262.473,-197.109 272.974,-195.703 263.888,-190.254 262.473,-197.109"/>
</g>
<!-- polygon -->
<g id="node3" class="node"><title>polygon</title>
<polygon fill="#bdd7e7" stroke="black" points="98,-237.5 12,-237.5 12,-194.5 98,-194.5 98,-237.5"/>
<text text-anchor="middle" x="55" y="-211.2" font-family="Hiragino Kaku Gothic" font-size="16.00">polygon</text>
</g>
<!-- text -->
<g id="node4" class="node"><title>text</title>
<polygon fill="#bdd7e7" stroke="black" points="98,-176.5 12,-176.5 12,-133.5 98,-133.5 98,-176.5"/>
<text text-anchor="middle" x="55" y="-150.2" font-family="Hiragino Kaku Gothic" font-size="16.00">text</text>
</g>
<!-- cube -->
<g id="node5" class="node"><title>cube</title>
<polygon fill="#bdd7e7" stroke="black" points="666.309,-234.5 580.309,-234.5 580.309,-191.5 666.309,-191.5 666.309,-234.5"/>
<text text-anchor="middle" x="623.309" y="-208.2" font-family="Hiragino Kaku Gothic" font-size="16.00">cube</text>
</g>
<!-- sphere -->
<g id="node6" class="node"><title>sphere</title>
<polygon fill="#bdd7e7" stroke="black" points="666.309,-173.5 580.309,-173.5 580.309,-130.5 666.309,-130.5 666.309,-173.5"/>
<text text-anchor="middle" x="623.309" y="-147.2" font-family="Hiragino Kaku Gothic" font-size="16.00">sphere</text>
</g>
<!-- intersection -->
<g id="node16" class="node"><title>intersection</title>
<polygon fill="#bdd7e7" stroke="black" points="910.629,-212.5 812.988,-212.5 812.988,-169.5 910.629,-169.5 910.629,-212.5"/>
<text text-anchor="middle" x="861.809" y="-186.2" font-family="Hiragino Kaku Gothic" font-size="16.00">intersection</text>
</g>
<!-- sphere&#45;&gt;intersection -->
<g id="edge7" class="edge"><title>sphere&#45;&gt;intersection</title>
<path fill="none" stroke="black" d="M714.618,-166.893C722.876,-168.254 731.326,-169.648 739.796,-171.044"/>
<polygon fill="black" stroke="black" points="739.491,-174.541 749.928,-172.715 740.63,-167.635 739.491,-174.541"/>
</g>
<!-- cylinder -->
<g id="node7" class="node"><title>cylinder</title>
<polygon fill="#bdd7e7" stroke="black" points="666.309,-112.5 580.309,-112.5 580.309,-69.5 666.309,-69.5 666.309,-112.5"/>
<text text-anchor="middle" x="623.309" y="-86.2" font-family="Hiragino Kaku Gothic" font-size="16.00">cylinder</text>
</g>
<!-- polygon(3D) -->
<g id="node8" class="node"><title>polygon(3D)</title>
<polygon fill="#bdd7e7" stroke="black" points="674.965,-51.5 571.652,-51.5 571.652,-8.5 674.965,-8.5 674.965,-51.5"/>
<text text-anchor="middle" x="623.309" y="-25.2" font-family="Hiragino Kaku Gothic" font-size="16.00">polygon(3D)</text>
</g>
<!-- union -->
<g id="node14" class="node"><title>union</title>
<polygon fill="#bdd7e7" stroke="black" points="904.809,-334.5 818.809,-334.5 818.809,-291.5 904.809,-291.5 904.809,-334.5"/>
<text text-anchor="middle" x="861.809" y="-308.2" font-family="Hiragino Kaku Gothic" font-size="16.00">union</text>
</g>
<!-- linear_extrude&#45;&gt;union -->
<g id="edge8" class="edge"><title>linear_extrude&#45;&gt;union</title>
<path fill="none" stroke="black" d="M682.577,-343.899C700.11,-340.859 720.037,-337.404 740.059,-333.933"/>
<polygon fill="black" stroke="black" points="740.708,-337.373 749.963,-332.216 739.513,-330.476 740.708,-337.373"/>
</g>
<!-- rotate_extrude -->
<g id="node10" class="node"><title>rotate_extrude</title>
<polygon fill="#bdd7e7" stroke="black" points="682.988,-314.5 563.629,-314.5 563.629,-271.5 682.988,-271.5 682.988,-314.5"/>
<text text-anchor="middle" x="623.309" y="-288.2" font-family="Hiragino Kaku Gothic" font-size="16.00">rotate_extrude</text>
</g>
<!-- offset -->
<g id="node11" class="node"><title>offset</title>
<polygon fill="#bdd7e7" stroke="black" points="234.895,-359.5 148.895,-359.5 148.895,-316.5 234.895,-316.5 234.895,-359.5"/>
<text text-anchor="middle" x="191.895" y="-333.2" font-family="Hiragino Kaku Gothic" font-size="16.00">offset</text>
</g>
<!-- hull&#45;&gt;linear_extrude -->
<g id="edge4" class="edge"><title>hull&#45;&gt;linear_extrude</title>
<path fill="none" stroke="black" d="M236.789,-308C253.558,-321.307 252.935,-331.993 272.789,-340 364.907,-377.15 481.987,-372.545 554.531,-364.375"/>
<polygon fill="black" stroke="black" points="554.242,-367.94 563.719,-363.202 553.356,-360.996 554.242,-367.94"/>
</g>
<!-- hull&#45;&gt;difference(2D) -->
<g id="edge5" class="edge"><title>hull&#45;&gt;difference(2D)</title>
<path fill="none" stroke="black" d="M236.432,-264.962C244.982,-262.608 254.043,-260.119 262.874,-257.705"/>
<polygon fill="black" stroke="black" points="264.063,-261.009 272.789,-255 262.22,-254.256 264.063,-261.009"/>
</g>
<!-- minkowski -->
<g id="node13" class="node"><title>minkowski</title>
<polygon fill="#bdd7e7" stroke="black" points="236.684,-237.5 147.105,-237.5 147.105,-194.5 236.684,-194.5 236.684,-237.5"/>
<text text-anchor="middle" x="191.895" y="-211.2" font-family="Hiragino Kaku Gothic" font-size="16.00">minkowski</text>
</g>
<!-- difference -->
<g id="node15" class="node"><title>difference</title>
<polygon fill="#bdd7e7" stroke="black" points="904.809,-273.5 818.809,-273.5 818.809,-230.5 904.809,-230.5 904.809,-273.5"/>
<text text-anchor="middle" x="861.809" y="-247.2" font-family="Hiragino Kaku Gothic" font-size="16.00">difference</text>
</g>
<!-- union(2D) -->
<g id="node17" class="node"><title>union(2D)</title>
<polygon fill="#bdd7e7" stroke="black" points="428.512,-307.5 341.996,-307.5 341.996,-264.5 428.512,-264.5 428.512,-307.5"/>
<text text-anchor="middle" x="385.254" y="-281.2" font-family="Hiragino Kaku Gothic" font-size="16.00">union(2D)</text>
</g>
<!-- difference(2D)&#45;&gt;linear_extrude -->
<g id="edge6" class="edge"><title>difference(2D)&#45;&gt;linear_extrude</title>
<path fill="none" stroke="black" d="M497.719,-255C524.414,-276.679 506.701,-301.527 532.73,-324 539.315,-329.685 547.016,-334.302 555.089,-338.049"/>
<polygon fill="black" stroke="black" points="553.162,-341.021 563.719,-341.921 556.028,-334.634 553.162,-341.021"/>
</g>
<!-- intersection(2D) -->
<g id="node19" class="node"><title>intersection(2D)</title>
<polygon fill="#bdd7e7" stroke="black" points="449.684,-185.5 320.824,-185.5 320.824,-142.5 449.684,-142.5 449.684,-185.5"/>
<text text-anchor="middle" x="385.254" y="-159.2" font-family="Hiragino Kaku Gothic" font-size="16.00">intersection(2D)</text>
</g>
</g>
</svg>
