<?xml version="1.0" encoding="UTF-8" standalone="no"?>
<!DOCTYPE svg PUBLIC "-//W3C//DTD SVG 1.1//EN"
 "http://www.w3.org/Graphics/SVG/1.1/DTD/svg11.dtd">
<!-- Generated by graphviz version 2.38.0 (20140413.2041)
 -->
<!-- Title: g Pages: 1 -->
<svg width="1012pt" height="559pt"
 viewBox="14.40 14.40 997.12 544.38" xmlns="http://www.w3.org/2000/svg" xmlns:xlink="http://www.w3.org/1999/xlink">
<g id="graph0" class="graph" transform="scale(1 1) rotate(0) translate(18.4 540.38)">
<title>g</title>
<polygon fill="#ffffff" stroke="none" points="-4,4 -4,-525.98 978.719,-525.98 978.719,4 -4,4"/>
<text text-anchor="middle" x="487.359" y="-503.58" font-family="Hiragino Kaku Gothic" font-size="18.00">OpenSCADフローチャート</text>
<g id="clust1" class="cluster"><title>cluster1</title>
<polygon fill="#eff3ff" stroke="black" points="0,-214 0,-477 111,-477 111,-214 0,-214"/>
<text text-anchor="middle" x="55.5" y="-458.6" font-family="Hiragino Kaku Gothic" font-size="18.00">2D図形生成</text>
</g>
<g id="clust2" class="cluster"><title>cluster2</title>
<polygon fill="#eff3ff" stroke="black" points="532.73,-8 532.73,-271 714.887,-271 714.887,-8 532.73,-8"/>
<text text-anchor="middle" x="623.809" y="-252.6" font-family="Hiragino Kaku Gothic" font-size="18.00">3D基本オブジェクト</text>
</g>
<g id="clust3" class="cluster"><title>cluster3</title>
<polygon fill="#eff3ff" stroke="black" points="563.719,-271 563.719,-411 682.898,-411 682.898,-271 563.719,-271"/>
<text text-anchor="middle" x="623.309" y="-392.6" font-family="Hiragino Kaku Gothic" font-size="18.00">押出し</text>
</g>
<g id="clust4" class="cluster"><title>cluster4</title>
<polygon fill="#eff3ff" stroke="black" points="147,-180 147,-382 236.789,-382 236.789,-180 147,-180"/>
<text text-anchor="middle" x="191.895" y="-363.6" font-family="Hiragino Kaku Gothic" font-size="18.00">2D変形</text>
</g>
<g id="clust5" class="cluster"><title>cluster5</title>
<polygon fill="#eff3ff" stroke="black" points="749.898,-170 749.898,-372 974.719,-372 974.719,-170 749.898,-170"/>
<text text-anchor="middle" x="862.309" y="-353.6" font-family="Hiragino Kaku Gothic" font-size="18.00">論理演算（3D組み合わせ)</text>
</g>
<g id="clust6" class="cluster"><title>cluster6</title>
<polygon fill="#eff3ff" stroke="black" points="272.789,-142 272.789,-344 497.719,-344 497.719,-142 272.789,-142"/>
<text text-anchor="middle" x="385.254" y="-325.6" font-family="Hiragino Kaku Gothic" font-size="18.00">論理演算（2D組み合わせ)</text>
</g>
<!-- square -->
<g id="node1" class="node"><title>square</title>
<polygon fill="#bdd7e7" stroke="black" points="98,-440.5 12,-440.5 12,-397.5 98,-397.5 98,-440.5"/>
<text text-anchor="middle" x="55" y="-414.2" font-family="Hiragino Kaku Gothic" font-size="16.00">square</text>
</g>
<!-- circle -->
<g id="node2" class="node"><title>circle</title>
<polygon fill="#bdd7e7" stroke="black" points="98,-379.5 12,-379.5 12,-336.5 98,-336.5 98,-379.5"/>
<text text-anchor="middle" x="55" y="-353.2" font-family="Hiragino Kaku Gothic" font-size="16.00">circle</text>
</g>
<!-- linear_extrude -->
<g id="node9" class="node"><title>linear_extrude</title>
<polygon fill="#bdd7e7" stroke="black" points="682.208,-375.5 564.409,-375.5 564.409,-332.5 682.208,-332.5 682.208,-375.5"/>
<text text-anchor="middle" x="623.309" y="-349.2" font-family="Hiragino Kaku Gothic" font-size="16.00">linear_extrude</text>
</g>
<!-- circle&#45;&gt;linear_extrude -->
<g id="edge1" class="edge"><title>circle&#45;&gt;linear_extrude</title>
<path fill="none" stroke="black" d="M110.813,-372.05C122.668,-374.525 135.19,-376.718 147,-378 209.677,-384.806 382.44,-380.383 497.719,-371 516.169,-369.498 536.067,-367.126 554.428,-364.625"/>
<polygon fill="black" stroke="black" points="554.351,-368.176 563.719,-363.227 553.309,-361.254 554.351,-368.176"/>
</g>
<!-- polygon -->
<g id="node3" class="node"><title>polygon</title>
<polygon fill="#bdd7e7" stroke="black" points="98,-318.5 12,-318.5 12,-275.5 98,-275.5 98,-318.5"/>
<text text-anchor="middle" x="55" y="-292.2" font-family="Hiragino Kaku Gothic" font-size="16.00">polygon</text>
</g>
<!-- hull -->
<g id="node12" class="node"><title>hull</title>
<polygon fill="#bdd7e7" stroke="black" points="234.895,-284.5 148.895,-284.5 148.895,-241.5 234.895,-241.5 234.895,-284.5"/>
<text text-anchor="middle" x="191.895" y="-258.2" font-family="Hiragino Kaku Gothic" font-size="16.00">hull</text>
</g>
<!-- polygon&#45;&gt;hull -->
<g id="edge2" class="edge"><title>polygon&#45;&gt;hull</title>
<path fill="none" stroke="black" d="M110.662,-283.222C119.922,-280.889 129.515,-278.471 138.709,-276.153"/>
<polygon fill="black" stroke="black" points="138.455,-279.89 147,-273.627 136.414,-273.194 138.455,-279.89"/>
</g>
<!-- text -->
<g id="node4" class="node"><title>text</title>
<polygon fill="#bdd7e7" stroke="black" points="98,-257.5 12,-257.5 12,-214.5 98,-214.5 98,-257.5"/>
<text text-anchor="middle" x="55" y="-231.2" font-family="Hiragino Kaku Gothic" font-size="16.00">text</text>
</g>
<!-- cube -->
<g id="node5" class="node"><title>cube</title>
<polygon fill="#bdd7e7" stroke="black" points="666.309,-234.5 580.309,-234.5 580.309,-191.5 666.309,-191.5 666.309,-234.5"/>
<text text-anchor="middle" x="623.309" y="-208.2" font-family="Hiragino Kaku Gothic" font-size="16.00">cube</text>
</g>
<!-- sphere -->
<g id="node6" class="node"><title>sphere</title>
<polygon fill="#bdd7e7" stroke="black" points="666.309,-173.5 580.309,-173.5 580.309,-130.5 666.309,-130.5 666.309,-173.5"/>
<text text-anchor="middle" x="623.309" y="-147.2" font-family="Hiragino Kaku Gothic" font-size="16.00">sphere</text>
</g>
<!-- intersection -->
<g id="node16" class="node"><title>intersection</title>
<polygon fill="#bdd7e7" stroke="black" points="910.629,-213.5 812.988,-213.5 812.988,-170.5 910.629,-170.5 910.629,-213.5"/>
<text text-anchor="middle" x="861.809" y="-187.2" font-family="Hiragino Kaku Gothic" font-size="16.00">intersection</text>
</g>
<!-- sphere&#45;&gt;intersection -->
<g id="edge6" class="edge"><title>sphere&#45;&gt;intersection</title>
<path fill="none" stroke="black" d="M714.618,-167.274C722.876,-168.671 731.326,-170.1 739.796,-171.533"/>
<polygon fill="black" stroke="black" points="739.484,-175.03 749.928,-173.246 740.651,-168.128 739.484,-175.03"/>
</g>
<!-- cylinder -->
<g id="node7" class="node"><title>cylinder</title>
<polygon fill="#bdd7e7" stroke="black" points="666.309,-112.5 580.309,-112.5 580.309,-69.5 666.309,-69.5 666.309,-112.5"/>
<text text-anchor="middle" x="623.309" y="-86.2" font-family="Hiragino Kaku Gothic" font-size="16.00">cylinder</text>
</g>
<!-- polygon(3D) -->
<g id="node8" class="node"><title>polygon(3D)</title>
<polygon fill="#bdd7e7" stroke="black" points="674.965,-51.5 571.652,-51.5 571.652,-8.5 674.965,-8.5 674.965,-51.5"/>
<text text-anchor="middle" x="623.309" y="-25.2" font-family="Hiragino Kaku Gothic" font-size="16.00">polygon(3D)</text>
</g>
<!-- union -->
<g id="node14" class="node"><title>union</title>
<polygon fill="#bdd7e7" stroke="black" points="904.809,-335.5 818.809,-335.5 818.809,-292.5 904.809,-292.5 904.809,-335.5"/>
<text text-anchor="middle" x="861.809" y="-309.2" font-family="Hiragino Kaku Gothic" font-size="16.00">union</text>
</g>
<!-- linear_extrude&#45;&gt;union -->
<g id="edge7" class="edge"><title>linear_extrude&#45;&gt;union</title>
<path fill="none" stroke="black" d="M682.577,-344.145C700.11,-341.179 720.037,-337.809 740.059,-334.423"/>
<polygon fill="black" stroke="black" points="740.687,-337.866 749.963,-332.748 739.52,-330.964 740.687,-337.866"/>
</g>
<!-- rotate_extrude -->
<g id="node10" class="node"><title>rotate_extrude</title>
<polygon fill="#bdd7e7" stroke="black" points="682.988,-314.5 563.629,-314.5 563.629,-271.5 682.988,-271.5 682.988,-314.5"/>
<text text-anchor="middle" x="623.309" y="-288.2" font-family="Hiragino Kaku Gothic" font-size="16.00">rotate_extrude</text>
</g>
<!-- offset -->
<g id="node11" class="node"><title>offset</title>
<polygon fill="#bdd7e7" stroke="black" points="234.895,-345.5 148.895,-345.5 148.895,-302.5 234.895,-302.5 234.895,-345.5"/>
<text text-anchor="middle" x="191.895" y="-319.2" font-family="Hiragino Kaku Gothic" font-size="16.00">offset</text>
</g>
<!-- hull&#45;&gt;linear_extrude -->
<g id="edge3" class="edge"><title>hull&#45;&gt;linear_extrude</title>
<path fill="none" stroke="black" d="M236.789,-293C255.891,-311.096 249.433,-327.882 272.789,-340 361.471,-386.011 480.514,-378.667 554.275,-367.543"/>
<polygon fill="black" stroke="black" points="554.438,-371.065 563.719,-365.953 553.276,-364.162 554.438,-371.065"/>
</g>
<!-- difference(2D) -->
<g id="node18" class="node"><title>difference(2D)</title>
<polygon fill="#bdd7e7" stroke="black" points="443.848,-246.5 326.66,-246.5 326.66,-203.5 443.848,-203.5 443.848,-246.5"/>
<text text-anchor="middle" x="385.254" y="-220.2" font-family="Hiragino Kaku Gothic" font-size="16.00">difference(2D)</text>
</g>
<!-- hull&#45;&gt;difference(2D) -->
<g id="edge4" class="edge"><title>hull&#45;&gt;difference(2D)</title>
<path fill="none" stroke="black" d="M236.572,-254.327C244.796,-252.693 253.758,-250.914 263.067,-249.065"/>
<polygon fill="black" stroke="black" points="263.817,-252.485 272.944,-247.104 262.454,-245.619 263.817,-252.485"/>
</g>
<!-- minkowski -->
<g id="node13" class="node"><title>minkowski</title>
<polygon fill="#bdd7e7" stroke="black" points="236.684,-223.5 147.105,-223.5 147.105,-180.5 236.684,-180.5 236.684,-223.5"/>
<text text-anchor="middle" x="191.895" y="-197.2" font-family="Hiragino Kaku Gothic" font-size="16.00">minkowski</text>
</g>
<!-- difference -->
<g id="node15" class="node"><title>difference</title>
<polygon fill="#bdd7e7" stroke="black" points="904.809,-274.5 818.809,-274.5 818.809,-231.5 904.809,-231.5 904.809,-274.5"/>
<text text-anchor="middle" x="861.809" y="-248.2" font-family="Hiragino Kaku Gothic" font-size="16.00">difference</text>
</g>
<!-- union(2D) -->
<g id="node17" class="node"><title>union(2D)</title>
<polygon fill="#bdd7e7" stroke="black" points="428.512,-307.5 341.996,-307.5 341.996,-264.5 428.512,-264.5 428.512,-307.5"/>
<text text-anchor="middle" x="385.254" y="-281.2" font-family="Hiragino Kaku Gothic" font-size="16.00">union(2D)</text>
</g>
<!-- difference(2D)&#45;&gt;linear_extrude -->
<g id="edge5" class="edge"><title>difference(2D)&#45;&gt;linear_extrude</title>
<path fill="none" stroke="black" d="M497.719,-255C524.414,-276.679 506.701,-301.527 532.73,-324 539.315,-329.685 547.016,-334.302 555.089,-338.049"/>
<polygon fill="black" stroke="black" points="553.162,-341.021 563.719,-341.921 556.028,-334.634 553.162,-341.021"/>
</g>
<!-- intersection(2D) -->
<g id="node19" class="node"><title>intersection(2D)</title>
<polygon fill="#bdd7e7" stroke="black" points="449.684,-185.5 320.824,-185.5 320.824,-142.5 449.684,-142.5 449.684,-185.5"/>
<text text-anchor="middle" x="385.254" y="-159.2" font-family="Hiragino Kaku Gothic" font-size="16.00">intersection(2D)</text>
</g>
</g>
</svg>
