<?xml version="1.0" encoding="UTF-8" standalone="no"?>
<!DOCTYPE svg PUBLIC "-//W3C//DTD SVG 1.1//EN"
 "http://www.w3.org/Graphics/SVG/1.1/DTD/svg11.dtd">
<!-- Generated by graphviz version 2.38.0 (20140413.2041)
 -->
<!-- Title: g Pages: 1 -->
<svg width="728pt" height="493pt"
 viewBox="14.40 14.40 713.19 478.38" xmlns="http://www.w3.org/2000/svg" xmlns:xlink="http://www.w3.org/1999/xlink">
<g id="graph0" class="graph" transform="scale(1 1) rotate(0) translate(18.4 474.38)">
<title>g</title>
<polygon fill="#ffffff" stroke="none" points="-4,4 -4,-459.98 694.789,-459.98 694.789,4 -4,4"/>
<text text-anchor="middle" x="345.395" y="-437.58" font-family="Hiragino Kaku Gothic" font-size="18.00">OpenSCADフローチャート</text>
<g id="clust5" class="cluster"><title>cluster5</title>
<polygon fill="#eff3ff" stroke="black" points="488.969,-169 488.969,-371 690.789,-371 690.789,-169 488.969,-169"/>
<text text-anchor="middle" x="589.879" y="-352.6" font-family="Hiragino Kaku Gothic" font-size="18.00">論理演算（組み合わせ)</text>
</g>
<g id="clust1" class="cluster"><title>cluster1</title>
<polygon fill="#eff3ff" stroke="black" points="0,-146 0,-409 111,-409 111,-146 0,-146"/>
<text text-anchor="middle" x="55.5" y="-390.6" font-family="Hiragino Kaku Gothic" font-size="18.00">2D図形生成</text>
</g>
<g id="clust2" class="cluster"><title>cluster2</title>
<polygon fill="#eff3ff" stroke="black" points="271.801,-8 271.801,-271 453.957,-271 453.957,-8 271.801,-8"/>
<text text-anchor="middle" x="362.879" y="-252.6" font-family="Hiragino Kaku Gothic" font-size="18.00">3D基本オブジェクト</text>
</g>
<g id="clust3" class="cluster"><title>cluster3</title>
<polygon fill="#eff3ff" stroke="black" points="302.789,-271 302.789,-411 421.969,-411 421.969,-271 302.789,-271"/>
<text text-anchor="middle" x="362.379" y="-392.6" font-family="Hiragino Kaku Gothic" font-size="18.00">押出し</text>
</g>
<g id="clust4" class="cluster"><title>cluster4</title>
<polygon fill="#eff3ff" stroke="black" points="147,-143 147,-345 236.789,-345 236.789,-143 147,-143"/>
<text text-anchor="middle" x="191.895" y="-326.6" font-family="Hiragino Kaku Gothic" font-size="18.00">2D変形</text>
</g>
<!-- square -->
<g id="node1" class="node"><title>square</title>
<polygon fill="#bdd7e7" stroke="black" points="98,-372.5 12,-372.5 12,-329.5 98,-329.5 98,-372.5"/>
<text text-anchor="middle" x="55" y="-346.2" font-family="Hiragino Kaku Gothic" font-size="16.00">square</text>
</g>
<!-- circle -->
<g id="node2" class="node"><title>circle</title>
<polygon fill="#bdd7e7" stroke="black" points="98,-311.5 12,-311.5 12,-268.5 98,-268.5 98,-311.5"/>
<text text-anchor="middle" x="55" y="-285.2" font-family="Hiragino Kaku Gothic" font-size="16.00">circle</text>
</g>
<!-- linear_extrude -->
<g id="node9" class="node"><title>linear_extrude</title>
<polygon fill="#bdd7e7" stroke="black" points="421.278,-375.5 303.48,-375.5 303.48,-332.5 421.278,-332.5 421.278,-375.5"/>
<text text-anchor="middle" x="362.379" y="-349.2" font-family="Hiragino Kaku Gothic" font-size="16.00">linear_extrude</text>
</g>
<!-- circle&#45;&gt;linear_extrude -->
<g id="edge1" class="edge"><title>circle&#45;&gt;linear_extrude</title>
<path fill="none" stroke="black" d="M110.573,-320.741C129.589,-331.424 146.404,-340.825 147,-341 194.528,-354.96 250.46,-357.932 293.274,-357.561"/>
<polygon fill="black" stroke="black" points="292.845,-361.068 302.789,-357.411 292.735,-354.069 292.845,-361.068"/>
</g>
<!-- polygon -->
<g id="node3" class="node"><title>polygon</title>
<polygon fill="#bdd7e7" stroke="black" points="98,-250.5 12,-250.5 12,-207.5 98,-207.5 98,-250.5"/>
<text text-anchor="middle" x="55" y="-224.2" font-family="Hiragino Kaku Gothic" font-size="16.00">polygon</text>
</g>
<!-- hull -->
<g id="node12" class="node"><title>hull</title>
<polygon fill="#bdd7e7" stroke="black" points="234.895,-247.5 148.895,-247.5 148.895,-204.5 234.895,-204.5 234.895,-247.5"/>
<text text-anchor="middle" x="191.895" y="-221.2" font-family="Hiragino Kaku Gothic" font-size="16.00">hull</text>
</g>
<!-- polygon&#45;&gt;hull -->
<g id="edge2" class="edge"><title>polygon&#45;&gt;hull</title>
<path fill="none" stroke="black" d="M110.662,-227.784C119.922,-227.578 129.515,-227.365 138.709,-227.161"/>
<polygon fill="black" stroke="black" points="137.098,-230.705 147,-226.938 136.909,-223.708 137.098,-230.705"/>
</g>
<!-- text -->
<g id="node4" class="node"><title>text</title>
<polygon fill="#bdd7e7" stroke="black" points="98,-189.5 12,-189.5 12,-146.5 98,-146.5 98,-189.5"/>
<text text-anchor="middle" x="55" y="-163.2" font-family="Hiragino Kaku Gothic" font-size="16.00">text</text>
</g>
<!-- cube -->
<g id="node5" class="node"><title>cube</title>
<polygon fill="#bdd7e7" stroke="black" points="405.379,-234.5 319.379,-234.5 319.379,-191.5 405.379,-191.5 405.379,-234.5"/>
<text text-anchor="middle" x="362.379" y="-208.2" font-family="Hiragino Kaku Gothic" font-size="16.00">cube</text>
</g>
<!-- sphere -->
<g id="node6" class="node"><title>sphere</title>
<polygon fill="#bdd7e7" stroke="black" points="405.379,-173.5 319.379,-173.5 319.379,-130.5 405.379,-130.5 405.379,-173.5"/>
<text text-anchor="middle" x="362.379" y="-147.2" font-family="Hiragino Kaku Gothic" font-size="16.00">sphere</text>
</g>
<!-- intersection -->
<g id="node16" class="node"><title>intersection</title>
<polygon fill="#bdd7e7" stroke="black" points="638.699,-212.5 541.058,-212.5 541.058,-169.5 638.699,-169.5 638.699,-212.5"/>
<text text-anchor="middle" x="589.879" y="-186.2" font-family="Hiragino Kaku Gothic" font-size="16.00">intersection</text>
</g>
<!-- sphere&#45;&gt;intersection -->
<g id="edge4" class="edge"><title>sphere&#45;&gt;intersection</title>
<path fill="none" stroke="black" d="M453.456,-167.579C461.9,-169.039 470.521,-170.53 479.119,-172.017"/>
<polygon fill="black" stroke="black" points="478.689,-175.495 489.14,-173.75 479.882,-168.597 478.689,-175.495"/>
</g>
<!-- cylinder -->
<g id="node7" class="node"><title>cylinder</title>
<polygon fill="#bdd7e7" stroke="black" points="405.379,-112.5 319.379,-112.5 319.379,-69.5 405.379,-69.5 405.379,-112.5"/>
<text text-anchor="middle" x="362.379" y="-86.2" font-family="Hiragino Kaku Gothic" font-size="16.00">cylinder</text>
</g>
<!-- polygon(3D) -->
<g id="node8" class="node"><title>polygon(3D)</title>
<polygon fill="#bdd7e7" stroke="black" points="414.035,-51.5 310.723,-51.5 310.723,-8.5 414.035,-8.5 414.035,-51.5"/>
<text text-anchor="middle" x="362.379" y="-25.2" font-family="Hiragino Kaku Gothic" font-size="16.00">polygon(3D)</text>
</g>
<!-- union -->
<g id="node14" class="node"><title>union</title>
<polygon fill="#bdd7e7" stroke="black" points="632.879,-334.5 546.879,-334.5 546.879,-291.5 632.879,-291.5 632.879,-334.5"/>
<text text-anchor="middle" x="589.879" y="-308.2" font-family="Hiragino Kaku Gothic" font-size="16.00">union</text>
</g>
<!-- linear_extrude&#45;&gt;union -->
<g id="edge5" class="edge"><title>linear_extrude&#45;&gt;union</title>
<path fill="none" stroke="black" d="M421.576,-343.419C439.296,-340.197 459.385,-336.544 479.339,-332.916"/>
<polygon fill="black" stroke="black" points="479.978,-336.358 489.19,-331.125 478.725,-329.471 479.978,-336.358"/>
</g>
<!-- rotate_extrude -->
<g id="node10" class="node"><title>rotate_extrude</title>
<polygon fill="#bdd7e7" stroke="black" points="422.059,-314.5 302.699,-314.5 302.699,-271.5 422.059,-271.5 422.059,-314.5"/>
<text text-anchor="middle" x="362.379" y="-288.2" font-family="Hiragino Kaku Gothic" font-size="16.00">rotate_extrude</text>
</g>
<!-- offset -->
<g id="node11" class="node"><title>offset</title>
<polygon fill="#bdd7e7" stroke="black" points="234.895,-308.5 148.895,-308.5 148.895,-265.5 234.895,-265.5 234.895,-308.5"/>
<text text-anchor="middle" x="191.895" y="-282.2" font-family="Hiragino Kaku Gothic" font-size="16.00">offset</text>
</g>
<!-- hull&#45;&gt;linear_extrude -->
<g id="edge3" class="edge"><title>hull&#45;&gt;linear_extrude</title>
<path fill="none" stroke="black" d="M236.789,-257C258.911,-282.288 246.238,-302.196 271.801,-324 278.419,-329.645 286.14,-334.239 294.223,-337.975"/>
<polygon fill="black" stroke="black" points="292.234,-340.917 302.789,-341.838 295.112,-334.536 292.234,-340.917"/>
</g>
<!-- minkowski -->
<g id="node13" class="node"><title>minkowski</title>
<polygon fill="#bdd7e7" stroke="black" points="236.684,-186.5 147.105,-186.5 147.105,-143.5 236.684,-143.5 236.684,-186.5"/>
<text text-anchor="middle" x="191.895" y="-160.2" font-family="Hiragino Kaku Gothic" font-size="16.00">minkowski</text>
</g>
<!-- difference -->
<g id="node15" class="node"><title>difference</title>
<polygon fill="#bdd7e7" stroke="black" points="632.879,-273.5 546.879,-273.5 546.879,-230.5 632.879,-230.5 632.879,-273.5"/>
<text text-anchor="middle" x="589.879" y="-247.2" font-family="Hiragino Kaku Gothic" font-size="16.00">difference</text>
</g>
</g>
</svg>
